<?xml version="1.0" encoding="utf-8"?>
<!-- Generator: Adobe Illustrator 21.1.0, SVG Export Plug-In . SVG Version: 6.00 Build 0)  -->
<svg version="1.1" id="LittleMe" xmlns="http://www.w3.org/2000/svg" xmlns:xlink="http://www.w3.org/1999/xlink" x="0px" y="0px"
	 viewBox="0 0 118.5 200" style="enable-background:new 0 0 118.5 200;" xml:space="preserve">
<style type="text/css">
	.st0{fill:#F8C09D;}
	.st1{fill:#D99C8A;}
	.st2{fill:#1B1464;}
	.st3{fill:#0E0D3F;}
	.st4{fill:#997858;}
	.st5{fill:#C69C6D;}
	.st6{fill:#333333;}
	.st7{fill:#2D2D2D;}
	.st8{fill:#42210B;}
	.st9{fill:#E6997F;}
	.st10{fill:#041F30;}
	.st11{fill:#FFFFFF;}
	.st12{fill:url(#SVGID_1_);}
	.st13{fill:none;stroke:#041F30;stroke-width:0.25;stroke-miterlimit:10;}
</style>
<g id="Neck">
	<path class="st0" d="M58.2,108c0,5-4.7,9.1-10.4,9.1S37.3,113,37.3,108c0-1.2,0.3-2.4,0.8-3.5c-0.3-0.5-0.5-1-0.6-1.6
		c2.2-1.9,4.7-3.2,7.4-3.7c0.1,0,0.1-0.1,0.2-0.1c0.2-0.1,0.4-0.1,0.6-0.1c0.3-0.1,0.6-0.1,1-0.1c0.3,0,0.7-0.1,1.1-0.1
		s0.7,0,1.1,0.1c0.3,0,0.7,0.1,1,0.1c0.2,0,0.4,0.1,0.6,0.1c0.1,0,0.1,0,0.2,0.1c2.7,0.5,5.2,1.8,7.4,3.7c-0.1,0.5-0.3,1.1-0.6,1.6
		C57.9,105.5,58.2,106.7,58.2,108z"/>
	<path class="st1" d="M58,102.9c-0.1,0.5-0.3,1.1-0.6,1.6c-1.6,2.8-5.3,4.8-9.6,4.8s-8.1-2-9.6-4.8c-0.3-0.5-0.5-1-0.6-1.6
		c2.2-1.9,4.7-3.2,7.4-3.7c0.1,0,0.1-0.1,0.2-0.1c0.2-0.1,0.4-0.1,0.6-0.1c0.3-0.1,0.6-0.1,1-0.1c0.3,0,0.7-0.1,1.1-0.1
		s0.7,0,1.1,0.1c0.3,0,0.7,0.1,1,0.1c0.2,0,0.4,0.1,0.6,0.1c0.1,0,0.1,0,0.2,0.1C53.3,99.7,55.8,101,58,102.9z"/>
</g>
<g id="Arms">
	<polygon class="st0" points="53.3,151.2 61.2,159.8 76.7,145.7 76.7,124.7 65,124.7 65,140.6 	"/>
	<polygon class="st0" points="42.5,151.2 34.6,159.8 19.1,145.7 19.1,124.7 30.8,124.7 30.8,140.6 	"/>
</g>
<g id="Pants">
	<path class="st2" d="M63.4,151v41.7H47.8v-31.3c-6.2,0-11.7-4-15.5-10.4c-1.4-2.3-2.6-5-3.4-7.8h37.9C66.7,143.1,66,148.3,63.4,151
		z"/>
	<path class="st3" d="M47.8,161.4v31.3H32.1V151h0.1C36,157.4,41.6,161.4,47.8,161.4z"/>
</g>
<g id="Shoes">
	<rect x="13.9" y="192.6" class="st4" width="33.9" height="5.2"/>
	<rect x="47.8" y="192.6" class="st5" width="33.9" height="5.2"/>
</g>
<g id="Shirt">
	<path class="st6" d="M68.6,130.1c0,4.7-0.7,9.1-1.9,13H28.8c-1.2-4-1.9-8.4-1.9-13c0-0.9,0-1.7,0.1-2.6c0.4-8.3,3-15.6,7-20.8
		c1.1-1.5,2.3-2.7,3.6-3.8c0.1,0.5,0.3,1.1,0.6,1.6c-0.4,0.8-0.6,1.6-0.7,2.4c-0.1,0.3-0.1,0.7-0.1,1.1c0,5,4.7,9.1,10.4,9.1
		c1.1,0,2.2-0.2,3.2-0.5c4.2-1.2,7.2-4.6,7.2-8.7c0-1.2-0.3-2.4-0.8-3.5c0.3-0.5,0.5-1,0.6-1.6C64.3,108.2,68.6,118.4,68.6,130.1z"
		/>
	<path class="st7" d="M34,106.7c-3.9,5.2-6.5,12.5-7,20.8H16.7c-0.2-0.8-0.2-1.7-0.2-2.6C16.5,115.1,24.2,107.1,34,106.7z"/>
	<path class="st7" d="M61.6,106.7c3.9,5.2,6.5,12.5,7,20.8h10.3c0.2-0.8,0.2-1.7,0.2-2.6C79,115.1,71.3,107.1,61.6,106.7z"/>
</g>
<g id="Ears">
	<circle class="st1" cx="8.2" cy="53.3" r="7.8"/>
	<circle class="st1" cx="84" cy="52.6" r="7.8"/>
</g>
<ellipse id="Face" class="st0" cx="46.5" cy="61.7" rx="41.7" ry="43"/>
<g id="Hair">
	<rect x="7.4" y="38.3" transform="matrix(0.8123 -0.5833 0.5833 0.8123 -21.837 15.2381)" class="st8" width="10.7" height="6.5"/>
	
		<rect x="14.1" y="30.1" transform="matrix(0.8123 -0.5833 0.5833 0.8123 -15.8335 17.6043)" class="st8" width="10.7" height="6.5"/>
	
		<rect x="69.1" y="29.5" transform="matrix(0.8123 -0.5833 0.5833 0.8123 -5.1195 49.5917)" class="st8" width="10.7" height="6.5"/>
	
		<rect x="75.3" y="32.1" transform="matrix(0.8123 -0.5833 0.5833 0.8123 -5.4777 53.6908)" class="st8" width="10.7" height="6.5"/>
	<rect x="80.5" y="37" transform="matrix(0.8123 -0.5833 0.5833 0.8123 -7.0263 56.3787)" class="st8" width="7.1" height="4.3"/>
	<rect x="81.2" y="41.5" transform="matrix(0.8123 -0.5833 0.5833 0.8123 -9.564 57.6148)" class="st8" width="7.1" height="4.3"/>
	<rect x="5" y="42.8" transform="matrix(0.8123 -0.5833 0.5833 0.8123 -24.6327 13.3999)" class="st8" width="7.1" height="4.3"/>
</g>
<g id="Eyebrow_Shadow">
	<path class="st9" d="M64.7,38.3H51.1c-0.5,0-1-0.4-1-1v-3.2c0-0.6,0.5-1,1-1h13.6c0.6,0,1,0.4,1,1v3.2
		C65.7,37.8,65.2,38.3,64.7,38.3z"/>
	<path class="st9" d="M44.8,36.5H31.2c-0.5,0-1-0.5-1-1v-3.2c0-0.5,0.4-1,1-1h13.6c0.5,0,1,0.4,1,1v3.2
		C45.8,36.1,45.4,36.5,44.8,36.5z"/>
</g>
<g id="Eyebrows">
	<path class="st8" d="M44.2,35.5H30.5c-0.5,0-1-0.5-1-1v-3.2c0-0.5,0.5-1,1-1h13.6c0.5,0,1,0.4,1,1v3.2C45.2,35,44.7,35.5,44.2,35.5
		z"/>
	<path class="st8" d="M63.7,37H50.1c-0.6,0-1-0.5-1-1v-3.2c0-0.5,0.4-1,1-1h13.6c0.5,0,1,0.4,1,1V36C64.7,36.5,64.3,37,63.7,37z"/>
</g>
<g id="Eyes">
	<path id="Left_Eye" class="st10" d="M40.3,47.4H37c-0.5,0-1-0.5-1-1v-5.8c0-0.5,0.4-1,1-1h3.2c0.5,0,1,0.5,1,1v5.8
		C41.3,47,40.8,47.4,40.3,47.4z"/>
	<path id="Right_Eye" class="st10" d="M58.5,47.4h-3.2c-0.5,0-1-0.5-1-1v-5.8c0-0.5,0.5-1,1-1h3.2c0.5,0,1,0.5,1,1v5.8
		C59.5,47,59.1,47.4,58.5,47.4z"/>
</g>
<path id="Mouth" class="st11" d="M20.9,68.3h49.5c0,0-4.1,24.8-24.8,24.8S20.9,68.3,20.9,68.3z"/>
<g id="Hat">
	<path class="st6" d="M118,35.6c0,2.2-14.6,3.9-32.6,3.9h-1.3c-0.1,0-0.1-0.1-0.1-0.1c0.1-0.8,0.1-1.7,0.1-2.5
		c0-1.8-0.2-3.5-0.5-5.2c0.6,0,1.2,0,1.8,0C103.4,31.7,118,33.4,118,35.6z"/>
	<linearGradient id="SVGID_1_" gradientUnits="userSpaceOnUse" x1="45.0118" y1="45.6602" x2="45.8804" y2="-2.551">
		<stop  offset="0" style="stop-color:#000000"/>
		<stop  offset="0" style="stop-color:#414143"/>
		<stop  offset="1" style="stop-color:#1A1A1A"/>
	</linearGradient>
	<path class="st12" d="M84.3,37c0,0.9,0,1.7-0.1,2.5c-4.9-2.9-10-5.3-15.4-7c-6.8-2.2-13.9-3.3-21.3-3.3c-15,0-29.1,4.8-41,13.1
		c-0.3-1.7-0.4-3.5-0.4-5.3c0-20.1,17.5-36.5,39.1-36.5c19.7,0,36,13.6,38.7,31.3C84.1,33.5,84.3,35.2,84.3,37z"/>
</g>
<path id="Nose" class="st13" d="M47,46.8L44.8,59c0,0-1.8,2.9,2.3,2.8"/>
</svg>
