<?xml version="1.0" encoding="utf-8"?>
<!-- Generator: Adobe Illustrator 21.1.0, SVG Export Plug-In . SVG Version: 6.00 Build 0)  -->
<svg version="1.1" id="Layer_1" xmlns="http://www.w3.org/2000/svg" xmlns:xlink="http://www.w3.org/1999/xlink" x="0px" y="0px"
	 viewBox="0 0 304 68" style="enable-background:new 0 0 304 68;" xml:space="preserve">
<style type="text/css">
	.st0{fill:url(#SVGID_1_);}
	.st1{fill:url(#SVGID_2_);}
	.st2{fill:url(#SVGID_3_);}
	.st3{fill:url(#SVGID_4_);}
	.st4{fill:url(#SVGID_5_);}
	.st5{fill:#333333;}
</style>
<title>Logo_Web</title>
<linearGradient id="SVGID_1_" gradientUnits="userSpaceOnUse" x1="17.28" y1="66.08" x2="17.28" y2="66.08" gradientTransform="matrix(1 0 0 -1 16.63 66.47)">
	<stop  offset="0" style="stop-color:#5DC1A3"/>
	<stop  offset="1" style="stop-color:#2E2C6D"/>
</linearGradient>
<path class="st0" d="M33.9,0.4L33.9,0.4z"/>
<linearGradient id="SVGID_2_" gradientUnits="userSpaceOnUse" x1="35.74" y1="21.84" x2="36.89" y2="21.84" gradientTransform="matrix(1 0 0 -1 16.63 66.47)">
	<stop  offset="0" style="stop-color:#5DC1A3"/>
	<stop  offset="1" style="stop-color:#2E2C6D"/>
</linearGradient>
<path class="st1" d="M53.5,43.6c-0.3,0.7-0.7,1.4-1.2,2C52.8,45,53.2,44.3,53.5,43.6z"/>
<linearGradient id="SVGID_3_" gradientUnits="userSpaceOnUse" x1="0" y1="35.75" x2="55.81" y2="35.75" gradientTransform="matrix(1 0 0 -1 0 70)">
	<stop  offset="0" style="stop-color:#5DC1A3"/>
	<stop  offset="1" style="stop-color:#2E2C6D"/>
</linearGradient>
<path class="st2" d="M55.8,0.4v33.5c0,0.4,0,0.8,0,1.1c-0.1,3-0.9,5.9-2.2,8.6c-0.3,0.7-0.7,1.4-1.2,2c-0.4,0.7-0.9,1.3-1.4,2
	l-0.5,0.6c-2,2.3-4.4,4.2-7.1,5.5L42.9,54l-0.7,0.3l-0.7,0.3c-1.7,0.6-3.4,1.1-5.2,1.3v-4.4c1.8-0.2,3.5-0.8,5.1-1.5
	c0.6-0.3,1.1-0.6,1.6-0.9l0.5-0.3c0.2-0.1,0.3-0.2,0.5-0.3l0.5-0.4c0.3-0.2,0.6-0.5,0.9-0.8s0.3-0.3,0.4-0.4c0.5-0.5,1-1,1.5-1.6
	c0.1-0.1,0.1-0.2,0.2-0.3c0.7-0.9,1.3-1.9,1.9-3c0.2-0.3,0.3-0.6,0.4-0.9s0.1-0.3,0.2-0.5c0.2-0.5,0.4-1,0.6-1.5
	c0-0.2,0.1-0.4,0.1-0.5s0.1-0.4,0.1-0.6c0.1-0.4,0.1-0.8,0.2-1.2s0.1-0.8,0.1-1.2l0-30.5H33.9C17.7,5,4.6,18.1,4.6,34.2v33.9H0V34.2
	C0,15.8,14.8,0.7,33.3,0.4L55.8,0.4L55.8,0.4z"/>
<linearGradient id="SVGID_4_" gradientUnits="userSpaceOnUse" x1="27.04" y1="31.98" x2="27.06" y2="31.98" gradientTransform="matrix(1 0 0 -1 16.63 66.47)">
	<stop  offset="0" style="stop-color:#5DC1A3"/>
	<stop  offset="1" style="stop-color:#2E2C6D"/>
</linearGradient>
<path class="st3" d="M43.7,34.5c0,0.2,0,0.3,0,0.5v-1C43.7,34.2,43.7,34.3,43.7,34.5z"/>
<linearGradient id="SVGID_5_" gradientUnits="userSpaceOnUse" x1="12" y1="35.75" x2="67.82" y2="35.75" gradientTransform="matrix(1 0 0 -1 0 70)">
	<stop  offset="0" style="stop-color:#5DC1A3"/>
	<stop  offset="1" style="stop-color:#2E2C6D"/>
</linearGradient>
<path class="st4" d="M63.2,0.4v33.9c0,13.3-8.9,24.9-21.8,28.4c-1.7,0.5-3.4,0.8-5.1,0.9h-7.6V42.8c1.5,0.9,3.3,1.4,5.1,1.5
	c1.5,0,2.9-0.4,4.3-1c3.2-1.6,5.3-4.7,5.5-8.3v-1c-0.3-5.4-5-9.5-10.4-9.2c-5.1,0.3-9.1,4.5-9.2,9.7c0,0.5,0,1,0.1,1.5v27.5h-7.7
	V34.2C16.6,24.7,24.4,17,34,17c3.4,0,6.8,1.1,9.7,3v-5.5c-3-1.5-6.4-2.3-9.8-2.3c-12,0-21.8,9.7-21.9,21.7l0,0v34.2h24.4
	c1.7-0.1,3.4-0.4,5.1-0.8c15.4-3.5,26.4-17.3,26.3-33.1V0.4H63.2z M28.8,33.8c0.4-2.8,2.9-4.7,5.7-4.4s4.7,2.9,4.4,5.7
	c-0.2,1.7-1.3,3.1-2.8,3.9c-0.7,0.3-1.5,0.5-2.2,0.5c-2.6,0-4.7-1.9-5-4.4C28.7,34.7,28.7,34.3,28.8,33.8z"/>
<path class="st5" d="M84.3,46.2c-1.4-0.7-2.7-1.7-3.6-2.9l2.9-3.5c1.2,1.9,3.2,3.1,5.4,3.1c2.8,0,4.3-1.7,4.3-5V23.8h-9.7v-4.2h14.8
	v18.1c0,3.2-0.8,5.6-2.3,7.2s-3.9,2.4-6.9,2.4C87.5,47.3,85.9,46.9,84.3,46.2z"/>
<path class="st5" d="M117.6,45.8c-0.6,0.5-1.3,0.8-2.1,1c-0.8,0.2-1.7,0.4-2.6,0.3c-1.9,0.1-3.8-0.5-5.3-1.8c-1.3-1.4-2-3.3-1.9-5.2
	v-10h-3.4v-3.9h3.4v-4.8h4.9v4.8h5.6v3.9h-5.6V40c-0.1,0.8,0.2,1.7,0.7,2.3c0.6,0.6,1.4,0.9,2.2,0.8c1,0,2-0.3,2.7-0.9L117.6,45.8z"
	/>
<path class="st5" d="M138.6,27.1c1.6,0.9,2.9,2.2,3.8,3.8c0.9,1.7,1.4,3.6,1.4,5.6c0,2-0.4,3.9-1.4,5.6c-0.9,1.6-2.2,2.9-3.8,3.8
	c-1.7,0.9-3.5,1.4-5.4,1.3c-2.5,0.1-5-0.9-6.7-2.8v10.1h-4.9V26h4.7v2.7c0.8-1,1.8-1.7,3-2.2c1.2-0.5,2.6-0.8,3.9-0.7
	C135.1,25.7,137,26.2,138.6,27.1z M137.1,41.2c1.2-1.3,1.8-3,1.7-4.7c0.1-1.7-0.5-3.5-1.7-4.7c-1.2-1.2-2.8-1.9-4.4-1.8
	c-1.1,0-2.2,0.3-3.2,0.8c-0.9,0.5-1.7,1.3-2.2,2.3c-1.1,2.2-1.1,4.7,0,6.9c0.5,1,1.3,1.8,2.2,2.3c1,0.5,2.1,0.8,3.2,0.8
	C134.3,43,135.9,42.4,137.1,41.2L137.1,41.2z"/>
<path class="st5" d="M152.1,45.8c-1.7-0.9-3.1-2.2-4-3.8c-1.9-3.4-1.9-7.6,0-11c1-1.6,2.3-2.9,4-3.8c1.8-0.9,3.8-1.4,5.9-1.4
	c1.9-0.1,3.7,0.4,5.4,1.2c1.5,0.8,2.7,2.1,3.5,3.6l-3.8,2.2c-0.5-0.9-1.3-1.7-2.2-2.2c-2.5-1.3-5.5-0.8-7.5,1
	c-1.2,1.3-1.9,3-1.8,4.7c-0.1,1.8,0.6,3.5,1.8,4.8c2,1.9,5,2.3,7.5,1c0.9-0.5,1.7-1.3,2.2-2.2l3.8,2.2c-0.8,1.5-2,2.8-3.5,3.6
	c-1.6,0.9-3.5,1.3-5.4,1.3C156,47.2,154,46.7,152.1,45.8z"/>
<path class="st5" d="M183.2,25.8v4.6c-0.4-0.1-0.8-0.1-1.1-0.1c-1.7-0.1-3.3,0.5-4.5,1.7c-1.1,1.3-1.7,3-1.6,4.8v10.1h-4.9V26h4.6v3
	C177.2,26.9,179.6,25.8,183.2,25.8z"/>
<path class="st5" d="M206.6,38h-16.4c0.2,1.5,1.1,2.8,2.2,3.7c1.3,0.9,2.9,1.4,4.5,1.3c2.1,0.1,4.2-0.7,5.7-2.3l2.6,3
	c-1,1.1-2.2,2-3.6,2.5c-3.6,1.3-7.5,1.1-10.9-0.5c-1.7-0.9-3.1-2.2-4-3.8c-1-1.7-1.5-3.6-1.4-5.5c0-1.9,0.5-3.8,1.4-5.4
	c0.9-1.6,2.2-2.9,3.9-3.8c1.7-0.9,3.6-1.4,5.6-1.4c1.9,0,3.8,0.4,5.4,1.4c1.6,0.9,2.9,2.2,3.8,3.8c0.9,1.7,1.4,3.7,1.4,5.6
	C206.7,36.9,206.7,37.4,206.6,38z M192.2,31.1c-1.1,0.9-1.8,2.3-2,3.7h11.8c-0.2-1.4-0.8-2.7-1.9-3.7
	C197.8,29.2,194.5,29.2,192.2,31.1L192.2,31.1z"/>
<path class="st5" d="M225.9,28c1.6,1.5,2.4,3.7,2.4,6.7v12.2h-4.6v-2.5c-0.6,0.9-1.5,1.7-2.6,2.1c-1.3,0.5-2.6,0.8-4,0.7
	c-1.4,0-2.8-0.2-4.1-0.8c-1.1-0.5-2-1.2-2.7-2.2c-0.7-0.9-1-2.1-1-3.2c-0.1-1.7,0.7-3.4,2.1-4.5c1.4-1.1,3.6-1.7,6.6-1.7h5.4v-0.3
	c0.1-1.3-0.4-2.5-1.3-3.4c-1.1-0.9-2.5-1.3-3.9-1.2c-1.2,0-2.3,0.2-3.5,0.5c-1,0.3-2,0.8-2.9,1.5l-1.9-3.5c1.2-0.9,2.5-1.5,3.9-1.9
	c1.6-0.4,3.2-0.7,4.9-0.7C221.9,25.8,224.2,26.5,225.9,28z M221.4,42.8c0.9-0.5,1.6-1.4,2-2.4V38h-5c-2.8,0-4.2,0.9-4.2,2.8
	c0,0.8,0.4,1.6,1.1,2.1c0.9,0.6,1.9,0.8,2.9,0.8C219.3,43.6,220.4,43.3,221.4,42.8z"/>
<path class="st5" d="M247.1,45.8c-0.6,0.5-1.3,0.8-2.1,1.1c-0.8,0.2-1.7,0.4-2.6,0.3c-1.9,0.1-3.8-0.5-5.3-1.8
	c-1.3-1.4-2-3.3-1.9-5.2v-10h-3.4v-3.9h3.4v-4.8h4.9v4.8h5.6v3.9h-5.6V40c-0.1,0.8,0.2,1.7,0.7,2.3c0.6,0.6,1.4,0.9,2.1,0.8
	c1,0,2-0.3,2.7-0.9L247.1,45.8z"/>
<path class="st5" d="M251.3,21.8c-1.2-1.1-1.2-2.9-0.1-4.1c0,0,0.1-0.1,0.1-0.1c0.6-0.6,1.4-0.9,2.2-0.8c0.8,0,1.6,0.3,2.2,0.8
	c0.6,0.5,0.9,1.2,0.9,2c0,0.8-0.3,1.6-0.9,2.2c-0.6,0.6-1.4,0.9-2.2,0.9C252.7,22.6,251.9,22.3,251.3,21.8z M251.1,26h4.9v20.9h-4.9
	L251.1,26z"/>
<path class="st5" d="M281.9,26L273,46.9h-5L259,26h5.1l6.5,15.5l6.7-15.5H281.9z"/>
<path class="st5" d="M303.9,38h-16.4c0.2,1.5,1.1,2.8,2.2,3.7c1.3,0.9,2.9,1.4,4.5,1.3c2.1,0.1,4.2-0.7,5.7-2.2l2.6,3
	c-1,1.1-2.2,2-3.6,2.6c-3.6,1.3-7.5,1.1-10.9-0.5c-1.7-0.9-3.1-2.2-4-3.8c-1-1.7-1.5-3.6-1.4-5.5c0-1.9,0.5-3.8,1.4-5.5
	c0.9-1.6,2.2-2.9,3.9-3.8c1.7-0.9,3.6-1.4,5.5-1.4c1.9,0,3.8,0.4,5.5,1.4c1.6,0.9,2.9,2.2,3.8,3.8c0.9,1.7,1.4,3.7,1.3,5.6
	C304,36.9,304,37.4,303.9,38z M289.5,31.1c-1.1,0.9-1.8,2.3-2,3.7h11.8c-0.2-1.4-0.8-2.7-1.9-3.7C295.1,29.2,291.8,29.2,289.5,31.1
	L289.5,31.1z"/>
</svg>
